<mxfile host="app.diagrams.net" modified="2022-04-23T11:17:11.566Z" agent="5.0 (Windows NT 10.0; Win64; x64) AppleWebKit/537.36 (KHTML, like Gecko) Chrome/98.0.4758.141 YaBrowser/22.3.2.644 Yowser/2.5 Safari/537.36" etag="0IFoUQSz95-BjraRvIHW" version="17.4.6" type="github">
  <diagram name="Page-1" id="efa7a0a1-bf9b-a30e-e6df-94a7791c09e9">
    <mxGraphModel dx="1385" dy="658" grid="1" gridSize="10" guides="1" tooltips="1" connect="1" arrows="1" fold="1" page="1" pageScale="1" pageWidth="826" pageHeight="1169" background="none" math="0" shadow="0">
      <root>
        <mxCell id="0" />
        <mxCell id="1" parent="0" />
        <mxCell id="niLs7mi3ug5Sc8osXaAR-36" value="" style="edgeStyle=orthogonalEdgeStyle;rounded=0;orthogonalLoop=1;jettySize=auto;html=1;" edge="1" parent="1" source="MkfUjrQgYObKAgXOd7g_-114" target="niLs7mi3ug5Sc8osXaAR-7">
          <mxGeometry relative="1" as="geometry" />
        </mxCell>
        <mxCell id="niLs7mi3ug5Sc8osXaAR-37" value="" style="edgeStyle=orthogonalEdgeStyle;rounded=0;orthogonalLoop=1;jettySize=auto;html=1;" edge="1" parent="1" source="MkfUjrQgYObKAgXOd7g_-114" target="niLs7mi3ug5Sc8osXaAR-2">
          <mxGeometry relative="1" as="geometry" />
        </mxCell>
        <mxCell id="MkfUjrQgYObKAgXOd7g_-114" value="&lt;br&gt;&lt;span style=&quot;white-space: pre&quot;&gt;	&lt;/span&gt;hosts: all:!common&lt;br&gt;&lt;span style=&quot;white-space: pre&quot;&gt;	&lt;/span&gt;role:&lt;br&gt;&lt;pre class=&quot;code highlight&quot; lang=&quot;yaml&quot;&gt;&lt;span id=&quot;LC6&quot; class=&quot;line&quot; lang=&quot;yaml&quot;&gt;    &lt;span class=&quot;pi&quot;&gt;-&lt;/span&gt; &lt;span class=&quot;s&quot;&gt;openssh&lt;/span&gt;&lt;/span&gt;&lt;br&gt;&lt;span id=&quot;LC7&quot; class=&quot;line&quot; lang=&quot;yaml&quot;&gt;    &lt;span class=&quot;pi&quot;&gt;-&lt;/span&gt; &lt;span class=&quot;s&quot;&gt;sudo&lt;/span&gt;&lt;/span&gt;&lt;br&gt;&lt;span id=&quot;LC8&quot; class=&quot;line&quot; lang=&quot;yaml&quot;&gt;    &lt;span class=&quot;pi&quot;&gt;-&lt;/span&gt; &lt;span class=&quot;s&quot;&gt;users&lt;/span&gt;&lt;/span&gt;&lt;br&gt;&lt;span id=&quot;LC9&quot; class=&quot;line&quot; lang=&quot;yaml&quot;&gt;    &lt;span class=&quot;pi&quot;&gt;-&lt;/span&gt; &lt;span class=&quot;s&quot;&gt;packages&lt;/span&gt;&lt;/span&gt;&lt;br&gt;&lt;span id=&quot;LC10&quot; class=&quot;line&quot; lang=&quot;yaml&quot;&gt;    &lt;span class=&quot;pi&quot;&gt;-&lt;/span&gt; &lt;span class=&quot;s&quot;&gt;node-exporter&lt;/span&gt;&lt;/span&gt;&lt;br&gt;&lt;span id=&quot;LC11&quot; class=&quot;line&quot; lang=&quot;yaml&quot;&gt;    &lt;span class=&quot;pi&quot;&gt;-&lt;/span&gt; &lt;span class=&quot;s&quot;&gt;sysctl&lt;/span&gt;&lt;/span&gt;&lt;br&gt;&lt;span id=&quot;LC12&quot; class=&quot;line&quot; lang=&quot;yaml&quot;&gt;    &lt;span class=&quot;pi&quot;&gt;-&lt;/span&gt; &lt;span class=&quot;s&quot;&gt;rc-local&lt;/span&gt;&lt;/span&gt;&lt;br&gt;&lt;/pre&gt;" style="verticalAlign=top;align=left;overflow=fill;fontSize=12;fontFamily=Helvetica;html=1;" parent="1" vertex="1">
          <mxGeometry x="320" y="130" width="140" height="170" as="geometry" />
        </mxCell>
        <mxCell id="niLs7mi3ug5Sc8osXaAR-34" value="" style="edgeStyle=orthogonalEdgeStyle;rounded=0;orthogonalLoop=1;jettySize=auto;html=1;entryX=0.5;entryY=0;entryDx=0;entryDy=0;" edge="1" parent="1" source="MkfUjrQgYObKAgXOd7g_-116" target="MkfUjrQgYObKAgXOd7g_-140">
          <mxGeometry relative="1" as="geometry" />
        </mxCell>
        <mxCell id="MkfUjrQgYObKAgXOd7g_-116" value="web" style="swimlane;fontStyle=0;childLayout=stackLayout;horizontal=1;startSize=30;horizontalStack=0;resizeParent=1;resizeParentMax=0;resizeLast=0;collapsible=1;marginBottom=0;" parent="1" vertex="1">
          <mxGeometry x="440" y="595" width="140" height="120" as="geometry" />
        </mxCell>
        <mxCell id="MkfUjrQgYObKAgXOd7g_-117" value="app1" style="text;strokeColor=none;fillColor=none;align=left;verticalAlign=middle;spacingLeft=4;spacingRight=4;overflow=hidden;points=[[0,0.5],[1,0.5]];portConstraint=eastwest;rotatable=0;" parent="MkfUjrQgYObKAgXOd7g_-116" vertex="1">
          <mxGeometry y="30" width="140" height="30" as="geometry" />
        </mxCell>
        <mxCell id="MkfUjrQgYObKAgXOd7g_-118" value="..." style="text;strokeColor=none;fillColor=none;align=left;verticalAlign=middle;spacingLeft=4;spacingRight=4;overflow=hidden;points=[[0,0.5],[1,0.5]];portConstraint=eastwest;rotatable=0;" parent="MkfUjrQgYObKAgXOd7g_-116" vertex="1">
          <mxGeometry y="60" width="140" height="30" as="geometry" />
        </mxCell>
        <mxCell id="MkfUjrQgYObKAgXOd7g_-119" value="app39" style="text;strokeColor=none;fillColor=none;align=left;verticalAlign=middle;spacingLeft=4;spacingRight=4;overflow=hidden;points=[[0,0.5],[1,0.5]];portConstraint=eastwest;rotatable=0;" parent="MkfUjrQgYObKAgXOd7g_-116" vertex="1">
          <mxGeometry y="90" width="140" height="30" as="geometry" />
        </mxCell>
        <mxCell id="niLs7mi3ug5Sc8osXaAR-28" value="" style="edgeStyle=orthogonalEdgeStyle;rounded=0;orthogonalLoop=1;jettySize=auto;html=1;entryX=0.5;entryY=0;entryDx=0;entryDy=0;" edge="1" parent="1" source="MkfUjrQgYObKAgXOd7g_-121" target="niLs7mi3ug5Sc8osXaAR-17">
          <mxGeometry relative="1" as="geometry" />
        </mxCell>
        <mxCell id="MkfUjrQgYObKAgXOd7g_-121" value="lb" style="swimlane;fontStyle=0;childLayout=stackLayout;horizontal=1;startSize=30;horizontalStack=0;resizeParent=1;resizeParentMax=0;resizeLast=0;collapsible=1;marginBottom=0;" parent="1" vertex="1">
          <mxGeometry x="230" y="610" width="140" height="90" as="geometry" />
        </mxCell>
        <mxCell id="MkfUjrQgYObKAgXOd7g_-122" value="app-lb1" style="text;strokeColor=none;fillColor=none;align=left;verticalAlign=middle;spacingLeft=4;spacingRight=4;overflow=hidden;points=[[0,0.5],[1,0.5]];portConstraint=eastwest;rotatable=0;" parent="MkfUjrQgYObKAgXOd7g_-121" vertex="1">
          <mxGeometry y="30" width="140" height="30" as="geometry" />
        </mxCell>
        <mxCell id="MkfUjrQgYObKAgXOd7g_-123" value="app-lb2" style="text;strokeColor=none;fillColor=none;align=left;verticalAlign=middle;spacingLeft=4;spacingRight=4;overflow=hidden;points=[[0,0.5],[1,0.5]];portConstraint=eastwest;rotatable=0;" parent="MkfUjrQgYObKAgXOd7g_-121" vertex="1">
          <mxGeometry y="60" width="140" height="30" as="geometry" />
        </mxCell>
        <mxCell id="niLs7mi3ug5Sc8osXaAR-35" value="" style="edgeStyle=orthogonalEdgeStyle;rounded=0;orthogonalLoop=1;jettySize=auto;html=1;" edge="1" parent="1" source="MkfUjrQgYObKAgXOd7g_-125">
          <mxGeometry relative="1" as="geometry">
            <mxPoint x="680" y="690" as="targetPoint" />
          </mxGeometry>
        </mxCell>
        <mxCell id="MkfUjrQgYObKAgXOd7g_-125" value="mysql" style="swimlane;fontStyle=0;childLayout=stackLayout;horizontal=1;startSize=30;horizontalStack=0;resizeParent=1;resizeParentMax=0;resizeLast=0;collapsible=1;marginBottom=0;" parent="1" vertex="1">
          <mxGeometry x="610" y="550" width="140" height="90" as="geometry" />
        </mxCell>
        <mxCell id="MkfUjrQgYObKAgXOd7g_-126" value="mysql-master1" style="text;strokeColor=none;fillColor=none;align=left;verticalAlign=middle;spacingLeft=4;spacingRight=4;overflow=hidden;points=[[0,0.5],[1,0.5]];portConstraint=eastwest;rotatable=0;" parent="MkfUjrQgYObKAgXOd7g_-125" vertex="1">
          <mxGeometry y="30" width="140" height="30" as="geometry" />
        </mxCell>
        <mxCell id="MkfUjrQgYObKAgXOd7g_-127" value="mysql-master1" style="text;strokeColor=none;fillColor=none;align=left;verticalAlign=middle;spacingLeft=4;spacingRight=4;overflow=hidden;points=[[0,0.5],[1,0.5]];portConstraint=eastwest;rotatable=0;" parent="MkfUjrQgYObKAgXOd7g_-125" vertex="1">
          <mxGeometry y="60" width="140" height="30" as="geometry" />
        </mxCell>
        <mxCell id="MkfUjrQgYObKAgXOd7g_-132" value="mysql-slaves" style="swimlane;fontStyle=0;childLayout=stackLayout;horizontal=1;startSize=30;horizontalStack=0;resizeParent=1;resizeParentMax=0;resizeLast=0;collapsible=1;marginBottom=0;" parent="1" vertex="1">
          <mxGeometry x="610" y="690" width="140" height="120" as="geometry" />
        </mxCell>
        <mxCell id="MkfUjrQgYObKAgXOd7g_-133" value="mysql-slave01" style="text;strokeColor=none;fillColor=none;align=left;verticalAlign=middle;spacingLeft=4;spacingRight=4;overflow=hidden;points=[[0,0.5],[1,0.5]];portConstraint=eastwest;rotatable=0;" parent="MkfUjrQgYObKAgXOd7g_-132" vertex="1">
          <mxGeometry y="30" width="140" height="30" as="geometry" />
        </mxCell>
        <mxCell id="MkfUjrQgYObKAgXOd7g_-134" value="..." style="text;strokeColor=none;fillColor=none;align=left;verticalAlign=middle;spacingLeft=4;spacingRight=4;overflow=hidden;points=[[0,0.5],[1,0.5]];portConstraint=eastwest;rotatable=0;" parent="MkfUjrQgYObKAgXOd7g_-132" vertex="1">
          <mxGeometry y="60" width="140" height="30" as="geometry" />
        </mxCell>
        <mxCell id="MkfUjrQgYObKAgXOd7g_-135" value="mysql-slave06" style="text;strokeColor=none;fillColor=none;align=left;verticalAlign=middle;spacingLeft=4;spacingRight=4;overflow=hidden;points=[[0,0.5],[1,0.5]];portConstraint=eastwest;rotatable=0;" parent="MkfUjrQgYObKAgXOd7g_-132" vertex="1">
          <mxGeometry y="90" width="140" height="30" as="geometry" />
        </mxCell>
        <mxCell id="niLs7mi3ug5Sc8osXaAR-32" value="" style="edgeStyle=orthogonalEdgeStyle;rounded=0;orthogonalLoop=1;jettySize=auto;html=1;entryX=0.5;entryY=0;entryDx=0;entryDy=0;" edge="1" parent="1" source="MkfUjrQgYObKAgXOd7g_-137" target="MkfUjrQgYObKAgXOd7g_-121">
          <mxGeometry relative="1" as="geometry">
            <mxPoint x="340" y="590" as="targetPoint" />
            <Array as="points" />
          </mxGeometry>
        </mxCell>
        <mxCell id="MkfUjrQgYObKAgXOd7g_-137" value="role: lb" style="rounded=0;whiteSpace=wrap;html=1;" parent="1" vertex="1">
          <mxGeometry x="240" y="525" width="120" height="60" as="geometry" />
        </mxCell>
        <mxCell id="MkfUjrQgYObKAgXOd7g_-140" value="Installed" style="swimlane;fontStyle=0;childLayout=stackLayout;horizontal=1;startSize=30;horizontalStack=0;resizeParent=1;resizeParentMax=0;resizeLast=0;collapsible=1;marginBottom=0;" parent="1" vertex="1">
          <mxGeometry x="440" y="740" width="140" height="270" as="geometry" />
        </mxCell>
        <mxCell id="MkfUjrQgYObKAgXOd7g_-148" value="php" style="text;strokeColor=none;fillColor=none;align=left;verticalAlign=middle;spacingLeft=4;spacingRight=4;overflow=hidden;points=[[0,0.5],[1,0.5]];portConstraint=eastwest;rotatable=0;" parent="MkfUjrQgYObKAgXOd7g_-140" vertex="1">
          <mxGeometry y="30" width="140" height="30" as="geometry" />
        </mxCell>
        <mxCell id="MkfUjrQgYObKAgXOd7g_-142" value="ssl certs" style="text;strokeColor=none;fillColor=none;align=left;verticalAlign=middle;spacingLeft=4;spacingRight=4;overflow=hidden;points=[[0,0.5],[1,0.5]];portConstraint=eastwest;rotatable=0;" parent="MkfUjrQgYObKAgXOd7g_-140" vertex="1">
          <mxGeometry y="60" width="140" height="30" as="geometry" />
        </mxCell>
        <mxCell id="MkfUjrQgYObKAgXOd7g_-143" value="geoip databases" style="text;strokeColor=none;fillColor=none;align=left;verticalAlign=middle;spacingLeft=4;spacingRight=4;overflow=hidden;points=[[0,0.5],[1,0.5]];portConstraint=eastwest;rotatable=0;" parent="MkfUjrQgYObKAgXOd7g_-140" vertex="1">
          <mxGeometry y="90" width="140" height="30" as="geometry" />
        </mxCell>
        <mxCell id="MkfUjrQgYObKAgXOd7g_-149" value="git" style="text;strokeColor=none;fillColor=none;align=left;verticalAlign=middle;spacingLeft=4;spacingRight=4;overflow=hidden;points=[[0,0.5],[1,0.5]];portConstraint=eastwest;rotatable=0;" parent="MkfUjrQgYObKAgXOd7g_-140" vertex="1">
          <mxGeometry y="120" width="140" height="30" as="geometry" />
        </mxCell>
        <mxCell id="MkfUjrQgYObKAgXOd7g_-150" value="ssh-key" style="text;strokeColor=none;fillColor=none;align=left;verticalAlign=middle;spacingLeft=4;spacingRight=4;overflow=hidden;points=[[0,0.5],[1,0.5]];portConstraint=eastwest;rotatable=0;" parent="MkfUjrQgYObKAgXOd7g_-140" vertex="1">
          <mxGeometry y="150" width="140" height="30" as="geometry" />
        </mxCell>
        <mxCell id="MkfUjrQgYObKAgXOd7g_-151" value="rsync" style="text;strokeColor=none;fillColor=none;align=left;verticalAlign=middle;spacingLeft=4;spacingRight=4;overflow=hidden;points=[[0,0.5],[1,0.5]];portConstraint=eastwest;rotatable=0;" parent="MkfUjrQgYObKAgXOd7g_-140" vertex="1">
          <mxGeometry y="180" width="140" height="30" as="geometry" />
        </mxCell>
        <mxCell id="MkfUjrQgYObKAgXOd7g_-152" value="python-pip" style="text;strokeColor=none;fillColor=none;align=left;verticalAlign=middle;spacingLeft=4;spacingRight=4;overflow=hidden;points=[[0,0.5],[1,0.5]];portConstraint=eastwest;rotatable=0;" parent="MkfUjrQgYObKAgXOd7g_-140" vertex="1">
          <mxGeometry y="210" width="140" height="30" as="geometry" />
        </mxCell>
        <mxCell id="MkfUjrQgYObKAgXOd7g_-153" value="s3cmd" style="text;strokeColor=none;fillColor=none;align=left;verticalAlign=middle;spacingLeft=4;spacingRight=4;overflow=hidden;points=[[0,0.5],[1,0.5]];portConstraint=eastwest;rotatable=0;" parent="MkfUjrQgYObKAgXOd7g_-140" vertex="1">
          <mxGeometry y="240" width="140" height="30" as="geometry" />
        </mxCell>
        <mxCell id="niLs7mi3ug5Sc8osXaAR-40" value="" style="edgeStyle=orthogonalEdgeStyle;rounded=0;orthogonalLoop=1;jettySize=auto;html=1;entryX=0;entryY=0.5;entryDx=0;entryDy=0;" edge="1" parent="1" source="MkfUjrQgYObKAgXOd7g_-144" target="MkfUjrQgYObKAgXOd7g_-122">
          <mxGeometry relative="1" as="geometry">
            <mxPoint x="210" y="660" as="targetPoint" />
          </mxGeometry>
        </mxCell>
        <mxCell id="MkfUjrQgYObKAgXOd7g_-144" value="sites" style="swimlane;fontStyle=0;childLayout=stackLayout;horizontal=1;startSize=30;horizontalStack=0;resizeParent=1;resizeParentMax=0;resizeLast=0;collapsible=1;marginBottom=0;" parent="1" vertex="1">
          <mxGeometry x="50" y="380" width="140" height="90" as="geometry" />
        </mxCell>
        <mxCell id="MkfUjrQgYObKAgXOd7g_-145" value="api.srwx.net" style="text;strokeColor=none;fillColor=none;align=left;verticalAlign=middle;spacingLeft=4;spacingRight=4;overflow=hidden;points=[[0,0.5],[1,0.5]];portConstraint=eastwest;rotatable=0;" parent="MkfUjrQgYObKAgXOd7g_-144" vertex="1">
          <mxGeometry y="30" width="140" height="30" as="geometry" />
        </mxCell>
        <mxCell id="MkfUjrQgYObKAgXOd7g_-146" value="test.api.srwx.net" style="text;strokeColor=none;fillColor=none;align=left;verticalAlign=middle;spacingLeft=4;spacingRight=4;overflow=hidden;points=[[0,0.5],[1,0.5]];portConstraint=eastwest;rotatable=0;" parent="MkfUjrQgYObKAgXOd7g_-144" vertex="1">
          <mxGeometry y="60" width="140" height="30" as="geometry" />
        </mxCell>
        <mxCell id="niLs7mi3ug5Sc8osXaAR-33" value="" style="edgeStyle=orthogonalEdgeStyle;rounded=0;orthogonalLoop=1;jettySize=auto;html=1;" edge="1" parent="1" source="niLs7mi3ug5Sc8osXaAR-1" target="MkfUjrQgYObKAgXOd7g_-116">
          <mxGeometry relative="1" as="geometry" />
        </mxCell>
        <mxCell id="niLs7mi3ug5Sc8osXaAR-1" value="role: web,haproxy" style="rounded=0;whiteSpace=wrap;html=1;" vertex="1" parent="1">
          <mxGeometry x="450" y="510" width="120" height="60" as="geometry" />
        </mxCell>
        <mxCell id="niLs7mi3ug5Sc8osXaAR-2" value="user:&lt;br&gt;-&amp;nbsp;&lt;code&gt;vozerov&lt;br&gt;ssh-key:&lt;br&gt;- vozerov&lt;/code&gt;" style="rounded=0;whiteSpace=wrap;html=1;" vertex="1" parent="1">
          <mxGeometry x="330" y="320" width="120" height="60" as="geometry" />
        </mxCell>
        <mxCell id="niLs7mi3ug5Sc8osXaAR-3" value="Installed" style="swimlane;fontStyle=0;childLayout=stackLayout;horizontal=1;startSize=30;horizontalStack=0;resizeParent=1;resizeParentMax=0;resizeLast=0;collapsible=1;marginBottom=0;" vertex="1" parent="1">
          <mxGeometry x="490" y="130" width="140" height="240" as="geometry" />
        </mxCell>
        <mxCell id="niLs7mi3ug5Sc8osXaAR-4" value="tmux" style="text;strokeColor=none;fillColor=none;align=left;verticalAlign=middle;spacingLeft=4;spacingRight=4;overflow=hidden;points=[[0,0.5],[1,0.5]];portConstraint=eastwest;rotatable=0;" vertex="1" parent="niLs7mi3ug5Sc8osXaAR-3">
          <mxGeometry y="30" width="140" height="30" as="geometry" />
        </mxCell>
        <mxCell id="niLs7mi3ug5Sc8osXaAR-5" value="htop" style="text;strokeColor=none;fillColor=none;align=left;verticalAlign=middle;spacingLeft=4;spacingRight=4;overflow=hidden;points=[[0,0.5],[1,0.5]];portConstraint=eastwest;rotatable=0;" vertex="1" parent="niLs7mi3ug5Sc8osXaAR-3">
          <mxGeometry y="60" width="140" height="30" as="geometry" />
        </mxCell>
        <mxCell id="niLs7mi3ug5Sc8osXaAR-6" value="iptables-persistent" style="text;strokeColor=none;fillColor=none;align=left;verticalAlign=middle;spacingLeft=4;spacingRight=4;overflow=hidden;points=[[0,0.5],[1,0.5]];portConstraint=eastwest;rotatable=0;" vertex="1" parent="niLs7mi3ug5Sc8osXaAR-3">
          <mxGeometry y="90" width="140" height="30" as="geometry" />
        </mxCell>
        <mxCell id="niLs7mi3ug5Sc8osXaAR-7" value="curl" style="text;strokeColor=none;fillColor=none;align=left;verticalAlign=middle;spacingLeft=4;spacingRight=4;overflow=hidden;points=[[0,0.5],[1,0.5]];portConstraint=eastwest;rotatable=0;" vertex="1" parent="niLs7mi3ug5Sc8osXaAR-3">
          <mxGeometry y="120" width="140" height="30" as="geometry" />
        </mxCell>
        <mxCell id="niLs7mi3ug5Sc8osXaAR-8" value="nscd" style="text;strokeColor=none;fillColor=none;align=left;verticalAlign=middle;spacingLeft=4;spacingRight=4;overflow=hidden;points=[[0,0.5],[1,0.5]];portConstraint=eastwest;rotatable=0;" vertex="1" parent="niLs7mi3ug5Sc8osXaAR-3">
          <mxGeometry y="150" width="140" height="30" as="geometry" />
        </mxCell>
        <mxCell id="niLs7mi3ug5Sc8osXaAR-9" value="ipmitool" style="text;strokeColor=none;fillColor=none;align=left;verticalAlign=middle;spacingLeft=4;spacingRight=4;overflow=hidden;points=[[0,0.5],[1,0.5]];portConstraint=eastwest;rotatable=0;" vertex="1" parent="niLs7mi3ug5Sc8osXaAR-3">
          <mxGeometry y="180" width="140" height="30" as="geometry" />
        </mxCell>
        <mxCell id="niLs7mi3ug5Sc8osXaAR-16" value="node-exporter" style="text;strokeColor=none;fillColor=none;align=left;verticalAlign=middle;spacingLeft=4;spacingRight=4;overflow=hidden;points=[[0,0.5],[1,0.5]];portConstraint=eastwest;rotatable=0;" vertex="1" parent="niLs7mi3ug5Sc8osXaAR-3">
          <mxGeometry y="210" width="140" height="30" as="geometry" />
        </mxCell>
        <mxCell id="niLs7mi3ug5Sc8osXaAR-17" value="Installed" style="swimlane;fontStyle=0;childLayout=stackLayout;horizontal=1;startSize=30;horizontalStack=0;resizeParent=1;resizeParentMax=0;resizeLast=0;collapsible=1;marginBottom=0;" vertex="1" parent="1">
          <mxGeometry x="140" y="820" width="140" height="210" as="geometry" />
        </mxCell>
        <mxCell id="niLs7mi3ug5Sc8osXaAR-18" value="libluajit-5.1-dev" style="text;strokeColor=none;fillColor=none;align=left;verticalAlign=middle;spacingLeft=4;spacingRight=4;overflow=hidden;points=[[0,0.5],[1,0.5]];portConstraint=eastwest;rotatable=0;" vertex="1" parent="niLs7mi3ug5Sc8osXaAR-17">
          <mxGeometry y="30" width="140" height="30" as="geometry" />
        </mxCell>
        <mxCell id="niLs7mi3ug5Sc8osXaAR-19" value="libgeoip-dev" style="text;strokeColor=none;fillColor=none;align=left;verticalAlign=middle;spacingLeft=4;spacingRight=4;overflow=hidden;points=[[0,0.5],[1,0.5]];portConstraint=eastwest;rotatable=0;" vertex="1" parent="niLs7mi3ug5Sc8osXaAR-17">
          <mxGeometry y="60" width="140" height="30" as="geometry" />
        </mxCell>
        <mxCell id="niLs7mi3ug5Sc8osXaAR-20" value="lua5.2" style="text;strokeColor=none;fillColor=none;align=left;verticalAlign=middle;spacingLeft=4;spacingRight=4;overflow=hidden;points=[[0,0.5],[1,0.5]];portConstraint=eastwest;rotatable=0;" vertex="1" parent="niLs7mi3ug5Sc8osXaAR-17">
          <mxGeometry y="90" width="140" height="30" as="geometry" />
        </mxCell>
        <mxCell id="niLs7mi3ug5Sc8osXaAR-21" value="libmaxminddb0" style="text;strokeColor=none;fillColor=none;align=left;verticalAlign=middle;spacingLeft=4;spacingRight=4;overflow=hidden;points=[[0,0.5],[1,0.5]];portConstraint=eastwest;rotatable=0;" vertex="1" parent="niLs7mi3ug5Sc8osXaAR-17">
          <mxGeometry y="120" width="140" height="30" as="geometry" />
        </mxCell>
        <mxCell id="niLs7mi3ug5Sc8osXaAR-38" value="libmaxminddb-dev" style="text;strokeColor=none;fillColor=none;align=left;verticalAlign=middle;spacingLeft=4;spacingRight=4;overflow=hidden;points=[[0,0.5],[1,0.5]];portConstraint=eastwest;rotatable=0;" vertex="1" parent="niLs7mi3ug5Sc8osXaAR-17">
          <mxGeometry y="150" width="140" height="30" as="geometry" />
        </mxCell>
        <mxCell id="niLs7mi3ug5Sc8osXaAR-22" value="nginx" style="text;strokeColor=none;fillColor=none;align=left;verticalAlign=middle;spacingLeft=4;spacingRight=4;overflow=hidden;points=[[0,0.5],[1,0.5]];portConstraint=eastwest;rotatable=0;" vertex="1" parent="niLs7mi3ug5Sc8osXaAR-17">
          <mxGeometry y="180" width="140" height="30" as="geometry" />
        </mxCell>
        <mxCell id="niLs7mi3ug5Sc8osXaAR-41" style="edgeStyle=orthogonalEdgeStyle;rounded=0;orthogonalLoop=1;jettySize=auto;html=1;exitX=0;exitY=0.5;exitDx=0;exitDy=0;entryX=1;entryY=0.5;entryDx=0;entryDy=0;" edge="1" parent="1" source="MkfUjrQgYObKAgXOd7g_-119" target="niLs7mi3ug5Sc8osXaAR-17">
          <mxGeometry relative="1" as="geometry">
            <Array as="points">
              <mxPoint x="390" y="700" />
              <mxPoint x="390" y="730" />
              <mxPoint x="340" y="730" />
              <mxPoint x="340" y="925" />
            </Array>
          </mxGeometry>
        </mxCell>
        <mxCell id="niLs7mi3ug5Sc8osXaAR-45" style="edgeStyle=orthogonalEdgeStyle;rounded=0;orthogonalLoop=1;jettySize=auto;html=1;exitX=1;exitY=0.5;exitDx=0;exitDy=0;" edge="1" parent="1" source="MkfUjrQgYObKAgXOd7g_-145" target="MkfUjrQgYObKAgXOd7g_-117">
          <mxGeometry relative="1" as="geometry">
            <mxPoint x="400" y="560" as="targetPoint" />
            <Array as="points">
              <mxPoint x="400" y="425" />
              <mxPoint x="400" y="640" />
            </Array>
          </mxGeometry>
        </mxCell>
      </root>
    </mxGraphModel>
  </diagram>
</mxfile>
